<svg xmlns="http://www.w3.org/2000/svg" width="16" height="20">
    <path fill="#FFF" fill-rule="evenodd" d="M14.737 13.043c-.698 0-1.263-.584-1.263-1.304V3.913c0-.72.565-1.304 1.263-1.304.697 0 1.263.584 1.263 1.304v7.826c0 .72-.566 1.304-1.263 1.304zM8 20c-.698 0-1.263-.619-1.263-1.381V5.729c0-.763.565-1.381 1.263-1.381.697 0 1.263.618 1.263 1.381v12.89C9.263 19.381 8.697 20 8 20zM8 2.609c-.698 0-1.263-.584-1.263-1.305C6.737.584 7.302 0 8 0c.697 0 1.263.584 1.263 1.304 0 .721-.566 1.305-1.263 1.305zM1.263 17.391C.565 17.391 0 16.807 0 16.087c0-.721.565-1.305 1.263-1.305s1.263.584 1.263 1.305c0 .72-.565 1.304-1.263 1.304zm0-4.348C.565 13.043 0 12.459 0 11.739V3.913c0-.72.565-1.304 1.263-1.304s1.263.584 1.263 1.304v7.826c0 .72-.565 1.304-1.263 1.304zm13.474 1.739c.697 0 1.263.584 1.263 1.305 0 .72-.566 1.304-1.263 1.304-.698 0-1.263-.584-1.263-1.304 0-.721.565-1.305 1.263-1.305z"/>
</svg>
